<svg id="Icon_ionic-ios-add-circle-outline" data-name="Icon ionic-ios-add-circle-outline" xmlns="http://www.w3.org/2000/svg" width="42.643" height="42.643" viewBox="0 0 42.643 42.643">
  <path id="Path_25" data-name="Path 25" d="M30.706,19.789H23.069V12.152a1.64,1.64,0,1,0-3.28,0v7.637H12.152a1.571,1.571,0,0,0-1.64,1.64,1.588,1.588,0,0,0,1.64,1.64h7.637v7.637a1.589,1.589,0,0,0,1.64,1.64,1.632,1.632,0,0,0,1.64-1.64V23.069h7.637a1.64,1.64,0,1,0,0-3.28Z" transform="translate(-0.107 -0.107)" fill="#fff"/>
  <path id="Path_26" data-name="Path 26" d="M24.7,6.245a18.444,18.444,0,1,1-13.049,5.4A18.329,18.329,0,0,1,24.7,6.245m0-2.87A21.322,21.322,0,1,0,46.018,24.7,21.318,21.318,0,0,0,24.7,3.375Z" transform="translate(-3.375 -3.375)" fill="#fff"/>
</svg>
