<svg id="Am" xmlns="http://www.w3.org/2000/svg" width="61.94" height="70.034" viewBox="0 0 61.94 70.034">
  <path id="Am_BG" d="M-4.489-10.151a4.8,4.8,0,0,1-2.395-.639L-33.063-25.9a4.8,4.8,0,0,1-2.4-4.149V-60.285a4.8,4.8,0,0,1,2.4-4.147L-6.884-79.546a4.8,4.8,0,0,1,4.785,0L24.086-64.432a4.812,4.812,0,0,1,2.395,4.147v30.232A4.816,4.816,0,0,1,24.086-25.9L-2.093-10.79a4.83,4.83,0,0,1-2.4.639" transform="translate(35.459 80.185)"/>
  <path id="m" d="M-1.917,0a3.874,3.874,0,0,1,2.9,1,4.476,4.476,0,0,1,.979,3.215v7.509H-1.111V5q0-2.489-1.7-2.488a1.842,1.842,0,0,0-1.731.884,5.143,5.143,0,0,0-.515,2.554v5.778H-8.129V5c0-1.659-.561-2.488-1.689-2.488a1.787,1.787,0,0,0-1.763.981,6.478,6.478,0,0,0-.488,2.813v5.422h-3.072V.212h2.351l.413,1.475h.166A3.045,3.045,0,0,1-10.8.4,4.539,4.539,0,0,1-8.932,0,4.785,4.785,0,0,1-6.839.412,2.965,2.965,0,0,1-5.507,1.687h.269A3.023,3.023,0,0,1-3.807.4,4.694,4.694,0,0,1-1.917,0" transform="translate(44.385 30.85)" fill="#fff"/>
  <path id="A" d="M-1.577-2.192-2.651-5.776H-8.013L-9.088-2.192h-3.365l5.2-15.122h3.817L1.786-2.192ZM-3.393-8.458l-1.074-3.5c-.069-.24-.156-.54-.266-.907s-.223-.739-.329-1.118-.2-.709-.269-.991c-.068.282-.162.629-.279,1.044s-.227.809-.332,1.183-.181.634-.234.79l-1.055,3.5Z" transform="translate(25.847 44.769)" fill="#fff"/>
</svg>
