<svg xmlns="http://www.w3.org/2000/svg" width="110.653" height="110.744" viewBox="0 0 110.653 110.744">
  <g id="Group_114" data-name="Group 114" transform="translate(-125.074 -326.481)">
    <g id="BUCKET" transform="translate(-182.475 960.919)">
      <path id="Path_73" data-name="Path 73" d="M-79.46-19.293H-182.235a3.942,3.942,0,0,1-3.938-3.941v-18.03a3.943,3.943,0,0,1,3.938-3.94H-79.46a3.946,3.946,0,0,1,3.941,3.94v18.03a3.946,3.946,0,0,1-3.941,3.941M-182.235-41.216l.047,17.983,102.727-.045-.045-17.937Z" transform="translate(493.722 -589.235)"/>
      <path id="Path_74" data-name="Path 74" d="M-61.846-66.137h-72.265a4.174,4.174,0,0,1-4.138-3.823l-6.654-85h93.846l-6.651,84.994a4.175,4.175,0,0,1-4.138,3.825m-78.748-84.834,6.321,80.7a.159.159,0,0,0,.162.15h72.265a.157.157,0,0,0,.159-.15l6.323-80.7Z" transform="translate(460.854 -457.557)"/>
      <path id="Path_75" data-name="Path 75" d="M-17.934-11.628A28.811,28.811,0,0,1-41.668-24.121a1.992,1.992,0,0,1,.514-2.772,1.992,1.992,0,0,1,2.77.514,24.815,24.815,0,0,0,20.45,10.763A24.816,24.816,0,0,0,2.516-26.379a1.994,1.994,0,0,1,2.772-.514A2,2,0,0,1,5.8-24.121,28.812,28.812,0,0,1-17.934-11.628" transform="translate(380.462 -534.849)"/>
    </g>
  </g>
</svg>
