<svg id="Bz" xmlns="http://www.w3.org/2000/svg" width="61.94" height="70.034" viewBox="0 0 61.94 70.034">
  <path id="Bz_BG" d="M-4.489-10.151a4.772,4.772,0,0,1-2.4-.641L-33.066-25.907a4.8,4.8,0,0,1-2.4-4.146V-60.282a4.806,4.806,0,0,1,2.4-4.15L-6.887-79.547a4.81,4.81,0,0,1,4.788,0L24.083-64.432a4.8,4.8,0,0,1,2.395,4.15v30.229a4.805,4.805,0,0,1-2.392,4.146L-2.1-10.792a4.765,4.765,0,0,1-2.393.641" transform="translate(35.462 80.185)"/>
  <path id="z" d="M-1.288-1.631h-8.883V-3.445l5.214-7.089H-9.862v-2.351h8.389v2L-6.545-3.98h5.257Z" transform="translate(43.016 44.005)" fill="#ecf0ee"/>
  <path id="B" d="M0,0H4.576A9.525,9.525,0,0,1,9.018.824a3.022,3.022,0,0,1,1.515,2.9,3.689,3.689,0,0,1-.589,2.125,2.431,2.431,0,0,1-1.68,1.052v.1a4.5,4.5,0,0,1,1.328.527,2.463,2.463,0,0,1,.96,1.058,4.184,4.184,0,0,1,.35,1.857,3.751,3.751,0,0,1-1.454,3.136A6.251,6.251,0,0,1,5.5,14.716H0ZM3.113,5.832H4.928A3.12,3.12,0,0,0,6.813,5.41a1.533,1.533,0,0,0,.524-1.268A1.3,1.3,0,0,0,6.72,2.927a3.951,3.951,0,0,0-1.958-.374H3.113Zm0,2.473V12.14H5.155a2.752,2.752,0,0,0,1.956-.547,1.943,1.943,0,0,0,.557-1.453A1.689,1.689,0,0,0,7.1,8.814a3.129,3.129,0,0,0-2.052-.508Z" transform="translate(20.291 27.658)" fill="#ecf0ee"/>
</svg>
