<svg xmlns="http://www.w3.org/2000/svg" width="61.941" height="70.036" viewBox="0 0 61.941 70.036">
  <g id="Fh" transform="translate(0)">
    <path id="Fh_BG" d="M-4.489-10.151a4.784,4.784,0,0,1-2.4-.642L-33.064-25.908a4.8,4.8,0,0,1-2.4-4.149V-60.286a4.8,4.8,0,0,1,2.4-4.15L-6.885-79.547a4.81,4.81,0,0,1,4.789,0L24.085-64.433a4.8,4.8,0,0,1,2.4,4.147v30.229a4.806,4.806,0,0,1-2.4,4.149L-2.094-10.793a4.788,4.788,0,0,1-2.395.642" transform="translate(35.46 80.187)"/>
    <path id="h" d="M-.445,0V3.193c0,.566-.017,1.1-.052,1.6s-.066.854-.1,1.059h.166A3.18,3.18,0,0,1,.955,4.6,4.382,4.382,0,0,1,2.831,4.2a4.265,4.265,0,0,1,2.928.981A3.986,3.986,0,0,1,6.87,8.326v7.337H3.8V9.09q0-2.434-1.813-2.433A1.982,1.982,0,0,0,.08,7.615a5.819,5.819,0,0,0-.525,2.752v5.3H-3.517V0Z" transform="translate(34.624 27.296)" fill="#ecf0ee"/>
    <path id="F" d="M-.445-2.133H-3.516V-16.847h8.43v2.556H-.445V-10.5H4.543v2.556H-.445Z" transform="translate(23.554 45.091)" fill="#ecf0ee"/>
  </g>
</svg>
