<svg id="Ikea_logo_Black" data-name="Ikea logo Black" xmlns="http://www.w3.org/2000/svg" width="80" height="38" viewBox="0 0 80 38">
  <rect id="Rectangle_23" data-name="Rectangle 23" width="80" height="38" fill="#fff"/>
  <path id="Union_1" data-name="Union 1" d="M-6393-4839.562V-4868h70v28.436h-70Zm11.22-23.113a23.182,23.182,0,0,0-7.208,4,6.644,6.644,0,0,0-2.643,4.9,6.649,6.649,0,0,0,2.643,4.9,23.182,23.182,0,0,0,7.208,4c6.351,2.375,14.8,3.685,23.781,3.685s17.429-1.309,23.78-3.685a23.174,23.174,0,0,0,7.21-4,6.649,6.649,0,0,0,2.643-4.9,6.644,6.644,0,0,0-2.643-4.9,23.174,23.174,0,0,0-7.21-4c-6.351-2.375-14.8-3.683-23.78-3.683S-6375.429-4865.05-6381.78-4862.676Zm46.579,13.817a1.93,1.93,0,0,0-.2-.892s-.1-.24-.237-.594c-.01-.023-.06-.155-.06-.155h-3.8l-.057.155s-.107.3-.213.594a1.875,1.875,0,0,0-.169.892h-5.208a2.6,2.6,0,0,0,.471-.89c.171-.473,2.88-7.942,3.124-8.61a1.934,1.934,0,0,0,.176-.892h8.8a1.535,1.535,0,0,0,.194.892c.254.664,3.075,8.025,3.3,8.605a2.73,2.73,0,0,0,.489.9Zm-2.633-6.235-.873,2.406h2.175c-.478-1.249-.877-2.3-.918-2.406a6.317,6.317,0,0,1-.2-.683A5.617,5.617,0,0,1-6337.835-4855.093Zm-20.312,6.235a1.889,1.889,0,0,0,.148-.892v-8.608a1.888,1.888,0,0,0-.148-.892h12.18v2.88a1.927,1.927,0,0,0-.892-.145h-5.125v1.367h4.922v2.188h-4.922v1.367h5.125a1.882,1.882,0,0,0,.892-.149v2.884Zm-8.664,0a3.43,3.43,0,0,0-.611-1.4c-.326-.483-2.061-3.119-2.061-3.119v3.622a1.889,1.889,0,0,0,.148.892h-6.312a1.9,1.9,0,0,0,.148-.892v-8.608a1.888,1.888,0,0,0-.148-.892h6.312a1.888,1.888,0,0,0-.148.892v3.757s2.02-2.622,2.479-3.237a3.852,3.852,0,0,0,.786-1.412h6.579A7.022,7.022,0,0,0-6361-4857.9c-.359.44-2.411,2.937-2.411,2.937s3.035,4.624,3.43,5.218a5.772,5.772,0,0,0,.743.892Zm-18.679,0a1.905,1.905,0,0,0,.147-.892v-8.608a1.9,1.9,0,0,0-.147-.892h6.858a1.888,1.888,0,0,0-.148.892v8.608a1.889,1.889,0,0,0,.148.892Zm54.288-9.571a1.32,1.32,0,0,1,1.367-1.368,1.344,1.344,0,0,1,1.368,1.368,1.322,1.322,0,0,1-1.368,1.367A1.32,1.32,0,0,1-6331.2-4858.43Zm.271,0a1.075,1.075,0,0,0,1.1,1.093,1.072,1.072,0,0,0,1.091-1.093,1.072,1.072,0,0,0-1.091-1.094A1.055,1.055,0,0,0-6330.931-4858.43Zm1.5.82-.324-.577h-.353v.577h-.243v-1.641h.615a.53.53,0,0,1,.512.533.542.542,0,0,1-.288.479l.354.629Zm-.676-.82h.333a.291.291,0,0,0,.307-.288.292.292,0,0,0-.307-.29h-.333Z" transform="translate(6397.999 4872.813)" fill="#0058a3" stroke="rgba(0,0,0,0)" stroke-miterlimit="10" stroke-width="1"/>
</svg>
