<svg xmlns="http://www.w3.org/2000/svg" width="75.049" height="30.02" viewBox="0 0 75.049 30.02"><defs><style>.a{fill:#0058a3;}.b{fill:#fbd914;}</style></defs><g transform="translate(-228.75 -117.5)"><path class="a" d="M303.789,147.52H228.75V117.5H303.8v30.02Z"/><path class="b" d="M234,136.259c0,7.38,15.1,13.509,36.029,13.509s36.019-6.129,36.019-13.509-15.1-13.509-36.019-13.509S234,128.879,234,136.259Z" transform="translate(-3.749 -3.749)"/><path class="a" d="M282.355,159.51a6.04,6.04,0,0,0,.8.934h-8.122a3.571,3.571,0,0,0-.656-1.46c-.345-.5-2.2-3.266-2.2-3.266v3.791a1.918,1.918,0,0,0,.161.934h-6.766a1.917,1.917,0,0,0,.161-.934V150.5a1.913,1.913,0,0,0-.161-.934h6.766a1.914,1.914,0,0,0-.161.934v3.937s2.162-2.751,2.657-3.391a3.909,3.909,0,0,0,.839-1.48h7.056a7.592,7.592,0,0,0-1.463,1.406l-2.582,3.077s3.249,4.84,3.679,5.46Zm2.13-9.009v9.009a1.917,1.917,0,0,1-.161.934h13.059v-3.023a2.059,2.059,0,0,1-.958.157h-5.5V156.15h5.281v-2.289h-5.281v-1.439h5.5a2.177,2.177,0,0,1,.958.147v-3.013H284.323A1.973,1.973,0,0,1,284.485,150.5Zm30.989,9.009a2.617,2.617,0,0,0,.528.934h-7.078a1.972,1.972,0,0,0-.215-.934s-.108-.252-.258-.62l-.065-.158h-4.077l-.065.168s-.119.3-.226.62a2.075,2.075,0,0,0-.183.934h-5.582a2.731,2.731,0,0,0,.505-.934l3.345-9.009a1.957,1.957,0,0,0,.194-.934h9.433a1.566,1.566,0,0,0,.2.934C312.214,151.193,315.238,158.9,315.474,159.51Zm-7.981-3.077-.989-2.519a5.448,5.448,0,0,1-.216-.714,4.076,4.076,0,0,1-.194.714c-.032.105-.452,1.207-.936,2.519Zm-45.134-6.866H255a1.911,1.911,0,0,1,.162.934v9.009a1.914,1.914,0,0,1-.162.934h7.358a1.917,1.917,0,0,1-.161-.934V150.5A1.912,1.912,0,0,1,262.359,149.566Zm50.856.861A1.385,1.385,0,0,1,314.581,149h.1a1.418,1.418,0,0,1,1.463,1.376v.053a1.469,1.469,0,0,1-2.937.073.178.178,0,0,0,.011-.073Zm.29,0a1.173,1.173,0,1,0,1.173-1.144,1.12,1.12,0,0,0-1.173,1.06Zm.883.85h-.258v-1.721h.656a.555.555,0,0,1,.549.556.575.575,0,0,1-.312.5l.376.661h-.29l-.344-.609h-.376v.608Zm0-.85h.355a.3.3,0,0,0,.323-.284.3.3,0,0,0-.29-.315h-.387Z" transform="translate(-18.746 -22.493)"/></g></svg>