<svg xmlns="http://www.w3.org/2000/svg" width="97.889" height="110.129" viewBox="0 0 97.889 110.129">
  <g id="Am_stroke" data-name="Am stroke" transform="translate(2.5 2.602)">
    <path id="Am_BG" d="M10.986,24.842a7.2,7.2,0,0,1-3.591-.959L-31.866,1.217A7.2,7.2,0,0,1-35.459-5V-50.342a7.2,7.2,0,0,1,3.593-6.219L7.394-79.226a7.2,7.2,0,0,1,7.176,0L53.839-56.561a7.216,7.216,0,0,1,3.592,6.219V-5a7.222,7.222,0,0,1-3.592,6.222L14.578,23.883a7.243,7.243,0,0,1-3.593.959" transform="translate(35.459 80.185)" fill="none" stroke="#000" stroke-width="5"/>
    <path id="m" d="M4.691,0A5.81,5.81,0,0,1,9.038,1.5q1.468,1.5,1.468,4.821v11.26H5.9V7.5q0-3.733-2.542-3.732a2.762,2.762,0,0,0-2.6,1.326,7.713,7.713,0,0,0-.773,3.83v8.666H-4.626V7.5c0-2.489-.841-3.732-2.533-3.732A2.68,2.68,0,0,0-9.8,5.237a9.715,9.715,0,0,0-.732,4.219v8.131h-4.607V.318h3.526L-11,2.531h.249A4.566,4.566,0,0,1-8.631.6a6.807,6.807,0,0,1,2.8-.6A7.176,7.176,0,0,1-2.691.618a4.447,4.447,0,0,1,2,1.912h.4A4.533,4.533,0,0,1,1.857.6,7.04,7.04,0,0,1,4.691,0" transform="translate(58.996 46.264)"/>
    <path id="A" d="M3.858,5.364,2.247-.011H-5.8L-7.406,5.364h-5.047l7.8-22.678H1.071L8.9,5.364Zm-2.724-9.4L-.477-9.28c-.1-.36-.234-.809-.4-1.36s-.334-1.108-.494-1.677-.3-1.064-.4-1.487c-.1.423-.242.943-.418,1.565s-.341,1.213-.5,1.773-.271.951-.351,1.184L-4.623-4.033Z" transform="translate(32.54 58.487)"/>
  </g>
</svg>
