<svg xmlns="http://www.w3.org/2000/svg" width="97.89" height="110.132" viewBox="0 0 97.89 110.132">
  <g id="Fh_stroke" data-name="Fh stroke" transform="translate(2.5 2.602)">
    <path id="Fh_BG" d="M10.986,24.843a7.174,7.174,0,0,1-3.593-.963L-31.867,1.214A7.2,7.2,0,0,1-35.46-5.008V-50.342a7.206,7.206,0,0,1,3.6-6.223L7.393-79.227a7.213,7.213,0,0,1,7.182-.007L53.838-56.561a7.2,7.2,0,0,1,3.593,6.219V-5.008a7.207,7.207,0,0,1-3.593,6.222L14.577,23.88a7.18,7.18,0,0,1-3.591.963" transform="translate(35.46 80.187)" fill="none" stroke="#000" stroke-width="5"/>
    <path id="h" d="M1.09,0V4.789c0,.849-.026,1.646-.077,2.4S.914,8.469.87,8.776h.249A4.77,4.77,0,0,1,3.189,6.895,6.572,6.572,0,0,1,6,6.3a6.4,6.4,0,0,1,4.39,1.471q1.668,1.472,1.667,4.713v11H7.455V13.631q0-3.65-2.719-3.649A2.973,2.973,0,0,0,1.877,11.42a8.726,8.726,0,0,0-.787,4.127v7.941H-3.517V0Z" transform="translate(50.167 40.934)"/>
    <path id="F" d="M1.089,5.219H-3.516V-16.847H9.126v3.833H1.089v5.686H8.57v3.834H1.089Z" transform="translate(33.566 59.204)"/>
  </g>
</svg>
