<svg xmlns="http://www.w3.org/2000/svg" width="97.889" height="110.129" viewBox="0 0 97.889 110.129">
  <g id="Xy_stroke" data-name="Xy stroke" transform="translate(2.5 2.602)">
    <path id="Xy_BG" d="M10.986,24.842a7.2,7.2,0,0,1-3.591-.959L-31.866,1.217A7.2,7.2,0,0,1-35.459-5V-50.342a7.2,7.2,0,0,1,3.593-6.219L7.394-79.226a7.2,7.2,0,0,1,7.176,0L53.839-56.561a7.216,7.216,0,0,1,3.592,6.219V-5a7.222,7.222,0,0,1-3.592,6.222L14.578,23.883a7.243,7.243,0,0,1-3.593.959" transform="translate(35.459 80.185)" fill="none" stroke="#000" stroke-width="5"/>
    <path id="y" d="M0,0H5.034L8.216,9.49a8.507,8.507,0,0,1,.373,1.42c.08.475.145.98.182,1.515h.1c.065-.536.147-1.04.249-1.515a11.339,11.339,0,0,1,.4-1.42L12.636,0h4.946L10.448,19.038a8.359,8.359,0,0,1-2.817,3.943A7.057,7.057,0,0,1,3.4,24.29a10.331,10.331,0,0,1-1.361-.072c-.365-.052-.7-.11-.988-.169V20.4c.2.043.475.08.8.124a7.88,7.88,0,0,0,1.018.062,3,3,0,0,0,2.29-.882,5.821,5.821,0,0,0,1.267-2.115l.278-.837Z" transform="translate(48.164 45.75)"/>
    <path id="X" d="M4.877,5.22H-.471L-5.608-3.125-10.736,5.22h-5L-8.418-6.154l-6.862-10.7h5.165L-5.359-8.9-.691-16.85H4.35L-2.579-5.909Z" transform="translate(43.287 57.406)"/>
  </g>
</svg>
