<svg xmlns="http://www.w3.org/2000/svg" width="97.889" height="110.13" viewBox="0 0 97.889 110.13">
  <g id="Bz_stroke" data-name="Bz stroke" transform="translate(2.5 2.603)">
    <path id="Bz_BG" d="M10.986,24.842a7.156,7.156,0,0,1-3.6-.961L-31.869,1.213A7.2,7.2,0,0,1-35.462-5V-50.337a7.208,7.208,0,0,1,3.593-6.224L7.391-79.229a7.214,7.214,0,0,1,7.18,0L53.836-56.561a7.2,7.2,0,0,1,3.592,6.224V-5A7.206,7.206,0,0,1,53.84,1.213L14.575,23.881a7.146,7.146,0,0,1-3.589.961" transform="translate(35.462 80.185)" fill="none" stroke="#000" stroke-width="5"/>
    <path id="z" d="M3.151,3.992H-10.171V1.272L-2.351-9.36H-9.707v-3.526H2.873v3L-4.733.47H3.151Z" transform="translate(59.427 59.555)"/>
    <path id="B" d="M0,0H6.862a14.284,14.284,0,0,1,6.662,1.236A4.532,4.532,0,0,1,15.8,5.593a5.533,5.533,0,0,1-.883,3.187,3.646,3.646,0,0,1-2.519,1.577v.153a6.755,6.755,0,0,1,1.992.79,3.693,3.693,0,0,1,1.439,1.586,6.275,6.275,0,0,1,.525,2.785,5.624,5.624,0,0,1-2.181,4.7,9.374,9.374,0,0,1-5.918,1.7H0ZM4.668,8.746H7.39a4.68,4.68,0,0,0,2.828-.633A2.3,2.3,0,0,0,11,6.211a1.956,1.956,0,0,0-.926-1.822,5.925,5.925,0,0,0-2.937-.561H4.668Zm0,3.709v5.751H7.73a4.128,4.128,0,0,0,2.933-.82,2.914,2.914,0,0,0,.836-2.18,2.533,2.533,0,0,0-.85-1.99,4.693,4.693,0,0,0-3.077-.762Z" transform="translate(30.429 41.478)"/>
  </g>
</svg>
