<svg xmlns="http://www.w3.org/2000/svg" width="92.889" height="105.029" viewBox="0 0 92.889 105.029">
  <g id="Tr" transform="translate(0 0)">
    <path id="Tr_BG" d="M10.986,24.843A7.174,7.174,0,0,1,7.4,23.884L-31.867,1.218A7.207,7.207,0,0,1-35.459-5V-50.338a7.205,7.205,0,0,1,3.589-6.219L7.393-79.226a7.2,7.2,0,0,1,7.186,0l39.26,22.666a7.207,7.207,0,0,1,3.592,6.222V-5a7.2,7.2,0,0,1-3.592,6.218L14.578,23.884a7.17,7.17,0,0,1-3.593.959" transform="translate(35.459 80.186)"/>
    <path id="r" d="M2.23,0c.227,0,.494.008.8.029a5.59,5.59,0,0,1,.743.092L3.436,4.448a6.159,6.159,0,0,0-.651-.109,6.41,6.41,0,0,0-.71-.045,6.21,6.21,0,0,0-2.258.418A3.745,3.745,0,0,0-1.926,6.058,4.268,4.268,0,0,0-2.593,8.59v8.6H-7.2V.306H-3.7l.681,2.842h.215A7.018,7.018,0,0,1-.771.926,5.025,5.025,0,0,1,2.23,0" transform="translate(57.286 46.264)" fill="#ecf0ee"/>
    <path id="T" d="M2.522,5.221H-2.146V-12.956h-6v-3.9H8.517v3.9h-6Z" transform="translate(40.085 58.228)" fill="#ecf0ee"/>
  </g>
</svg>
