<svg id="Tr" xmlns="http://www.w3.org/2000/svg" width="61.94" height="70.035" viewBox="0 0 61.94 70.035">
  <path id="Tr_BG" d="M-4.489-10.151a4.784,4.784,0,0,1-2.393-.639L-33.064-25.9a4.806,4.806,0,0,1-2.395-4.146V-60.283a4.8,4.8,0,0,1,2.393-4.147L-6.885-79.546a4.8,4.8,0,0,1,4.791,0L24.086-64.432a4.806,4.806,0,0,1,2.395,4.149v30.232A4.8,4.8,0,0,1,24.086-25.9L-2.093-10.791a4.781,4.781,0,0,1-2.4.639" transform="translate(35.459 80.187)"/>
  <path id="r" d="M-.911,0c.151,0,.329.005.536.019A3.728,3.728,0,0,1,.12.08L-.107,2.966a4.107,4.107,0,0,0-.434-.072,4.275,4.275,0,0,0-.473-.03,4.141,4.141,0,0,0-1.506.279,2.5,2.5,0,0,0-1.163.9,2.846,2.846,0,0,0-.445,1.688V11.46H-7.2V.2h2.329l.454,1.9h.143A4.68,4.68,0,0,1-2.912.617,3.351,3.351,0,0,1-.911,0" transform="translate(40.598 30.849)" fill="#ecf0ee"/>
  <path id="T" d="M-1.031-2.134H-4.144V-14.255h-4v-2.6H2.967v2.6h-4Z" transform="translate(29.442 44.443)" fill="#ecf0ee"/>
</svg>
