<svg xmlns="http://www.w3.org/2000/svg" width="37.582" height="207.365" viewBox="0 0 37.582 207.365">
  <g id="TREE" transform="translate(-344.033 841.72)">
    <path id="Path_48" data-name="Path 48" d="M633.664-584.172H629.4V-791.537h4.263Z" transform="translate(-268.634 -50.183)" fill="#010407"/>
    <path id="Path_49" data-name="Path 49" d="M633.773-584.172h-5.115V-791.537h5.115Z" transform="translate(-268.317 -50.183)"/>
    <path id="Path_50" data-name="Path 50" d="M-1.584-10.323l-2.128-3.695L13.942-24.186l2.128,3.695Z" transform="translate(365.546 -730.389)"/>
    <path id="Path_51" data-name="Path 51" d="M-1.584-10.322l-2.128-3.694L13.942-24.184l2.128,3.693Z" transform="translate(365.546 -652.212)" fill="#010407"/>
    <path id="Path_52" data-name="Path 52" d="M-1.584-10.322l-2.128-3.694L13.942-24.184l2.128,3.693Z" transform="translate(365.546 -652.212)"/>
    <path id="Path_53" data-name="Path 53" d="M-13.146-10.323-30.8-20.491l2.128-3.695,17.654,10.17Z" transform="translate(374.833 -769.887)"/>
    <path id="Path_54" data-name="Path 54" d="M-13.146-10.324-30.8-20.493l2.128-3.695,17.654,10.17Z" transform="translate(374.833 -691.435)"/>
  </g>
</svg>
