<svg xmlns="http://www.w3.org/2000/svg" width="698.082" height="45.89" viewBox="0 0 698.082 45.89"><defs><style>.a{fill:#fff;}</style></defs><g transform="translate(500.984 111.936) rotate(180)"><path class="a" d="M364.416,227.314a1.766,1.766,0,0,1-1.25-3.016l19.944-19.94-19.944-19.94a1.766,1.766,0,0,1,2.5-2.5l21.19,21.19a1.766,1.766,0,0,1,0,2.5l-21.19,21.19A1.766,1.766,0,0,1,364.416,227.314Z" transform="translate(113.614 -115.377)"/><path class="a" d="M1.769,45.889a1.766,1.766,0,0,1-1.25-3.016l19.944-19.94L.519,2.993A1.766,1.766,0,0,1,3.016.5l21.19,21.19a1.766,1.766,0,0,1,0,2.5L3.016,45.374A1.766,1.766,0,0,1,1.769,45.889Z" transform="translate(-172.375 111.936) rotate(180)"/><rect class="a" width="689.828" height="3.324" transform="translate(-193.366 87.359)"/></g></svg>