<svg xmlns="http://www.w3.org/2000/svg" width="67.407" height="85.146" viewBox="0 0 67.407 85.146"><defs><style>.a{fill:#fff;}</style></defs><g transform="translate(67.407) rotate(90)"><path class="a" d="M1.777,0A1.774,1.774,0,0,0,.521,3.03L20.555,23.06.521,43.091A1.774,1.774,0,0,0,3.029,45.6L24.316,24.313a1.774,1.774,0,0,0,0-2.508L3.029.518A1.774,1.774,0,0,0,1.777,0Z" transform="translate(60.309 0)"/><path class="a" d="M83.372,0H44.347A44.4,44.4,0,0,0,0,44.347a1.774,1.774,0,0,0,3.548,0,40.845,40.845,0,0,1,40.8-40.8H83.373a1.774,1.774,0,1,0,0-3.548Z" transform="translate(0 21.286)"/></g></svg>