<svg xmlns="http://www.w3.org/2000/svg" width="21.254" height="19.26" viewBox="0 0 21.254 19.26"><defs><style>.a{fill:#0058a3;stroke:#0058a3;stroke-width:2px;}</style></defs><g transform="translate(201.18 -345.118)"><path class="a" d="M-190.7,363.353a.5.5,0,0,0,.3,0c6.994-2.243,9.476-7.366,9.476-11.071,0-3.457-2.225-6.164-5.061-6.164a6.687,6.687,0,0,0-4.566,1.815,6.688,6.688,0,0,0-4.566-1.815c-2.837,0-5.06,2.707-5.06,6.164,0,3.705,2.481,8.828,9.476,11.071Zm-4.416-16.246a5.751,5.751,0,0,1,4.183,1.851.494.494,0,0,0,.382.182.494.494,0,0,0,.383-.182,5.75,5.75,0,0,1,4.183-1.851c2.283,0,4.072,2.274,4.072,5.175,0,3.346-2.266,7.976-8.638,10.08-6.37-2.1-8.636-6.734-8.636-10.08,0-2.9,1.788-5.175,4.071-5.175Z"/></g></svg>