<svg id="Xy" xmlns="http://www.w3.org/2000/svg" width="61.94" height="70.034" viewBox="0 0 61.94 70.034">
  <path id="Xy_BG" d="M-4.489-10.151a4.8,4.8,0,0,1-2.395-.639L-33.063-25.9a4.8,4.8,0,0,1-2.4-4.149V-60.285a4.8,4.8,0,0,1,2.4-4.147L-6.884-79.546a4.8,4.8,0,0,1,4.785,0L24.086-64.432a4.812,4.812,0,0,1,2.395,4.147v30.232A4.816,4.816,0,0,1,24.086-25.9L-2.093-10.79a4.83,4.83,0,0,1-2.4.639" transform="translate(35.459 80.185)"/>
  <path id="y" d="M0,0H3.356L5.479,6.328a5.672,5.672,0,0,1,.249.947c.053.317.1.653.121,1.011h.064c.044-.357.1-.693.166-1.011a7.561,7.561,0,0,1,.268-.947L8.426,0h3.3L6.967,12.695a5.574,5.574,0,0,1-1.879,2.629,4.705,4.705,0,0,1-2.825.873,6.889,6.889,0,0,1-.907-.048c-.244-.035-.464-.073-.659-.113V13.6c.136.029.317.053.536.083a5.254,5.254,0,0,0,.679.041,2,2,0,0,0,1.527-.588,3.882,3.882,0,0,0,.845-1.411l.185-.558Z" transform="translate(32.117 30.507)" fill="#fff"/>
  <path id="X" d="M-1.993-2.133H-5.559L-8.984-7.7-12.4-2.133h-3.337l4.883-7.585-4.576-7.132h3.444l3.171,5.3,3.113-5.3h3.362l-4.62,7.3Z" transform="translate(34.109 43.893)" fill="#fff"/>
</svg>
